<?xml version="1.0" encoding="utf-8"?>
<!-- Generator: Adobe Illustrator 19.0.0, SVG Export Plug-In . SVG Version: 6.00 Build 0)  -->
<svg version="1.1" id="Laag_1" xmlns="http://www.w3.org/2000/svg" xmlns:xlink="http://www.w3.org/1999/xlink" x="0px" y="0px"
	 viewBox="-255 334 64.3 34.6" style="enable-background:new -255 334 64.3 34.6;" xml:space="preserve">
<title>Noun_Project_100Icon_1px_grid_thin</title>
<path d="M-224,366.9c0-0.3,0.1-0.5,0.3-0.7l30-30.9c0.4-0.4,1-0.3,1.4,0.1c0.3,0.4,0.3,0.9,0,1.3l-30,30.9c-0.4,0.4-1,0.4-1.4,0
	C-223.9,367.4-224,367.1-224,366.9L-224,366.9z"/>
<path d="M-254,336.1c0-0.6,0.4-1,1-1c0.3,0,0.5,0.1,0.7,0.3l30,30.9c0.4,0.4,0.3,1.1-0.1,1.4c-0.4,0.3-0.9,0.3-1.3,0l-30-30.9
	C-253.9,336.6-254,336.3-254,336.1z"/>
</svg>
